<svg xmlns="http://www.w3.org/2000/svg" viewBox="0 0 16 16"><title>kwt</title><g id="abca48fb-fcad-4506-9dfb-bd64f92630ce" data-name="Layer 2"><g id="f3fdcba6-4c8e-4003-a6a7-da26e93fbfc0" data-name="Layer 1"><path d="M0,.1V15.9a.1.1,0,0,0,.1.1H15.9a.1.1,0,0,0,.1-.1V.1a.1.1,0,0,0-.1-.1H.1A.1.1,0,0,0,0,.1ZM8.07,8.777l6.055,6.055a.1.1,0,0,1-.07.168H1.945a.1.1,0,0,1-.07-.168L7.93,8.777A.1.1,0,0,1,8.07,8.777Zm.707-.847,6.055-6.054A.1.1,0,0,1,15,1.945v12.11a.1.1,0,0,1-.168.07L8.777,8.07A.1.1,0,0,1,8.777,7.93Zm5.348-6.762L1.168,14.125A.1.1,0,0,1,1,14.055V1.1A.1.1,0,0,1,1.1,1H14.055A.1.1,0,0,1,14.125,1.168Z" style="fill:#fff"/></g></g></svg>